;TYPE=PLATED
;Layer: PTH_Through
;EasyEDA Pro v2.2.46.11, 2026-03-23 14:08:53
;Gerber Generator version 0.3
M48
METRIC,LZ,0000.00000
;Hole size 1 = 0.70000 METRIC
T01C0.70000
;Hole size 2 = 0.75000 METRIC
T02C0.75000
;Hole size 3 = 0.90000 METRIC
T03C0.90000
;Hole size 4 = 0.90002 METRIC
T04C0.90002
;Hole size 5 = 0.91440 METRIC
T05C0.91440
;Hole size 6 = 1.00000 METRIC
T06C1.00000
;Hole size 7 = 1.05000 METRIC
T07C1.05000
;Hole size 8 = 1.20000 METRIC
T08C1.20000
;Hole size 9 = 1.20000 METRIC
T09C1.20000
;Hole size 10 = 1.30002 METRIC
T10C1.30002
;Hole size 11 = 1.40000 METRIC
T11C1.40000
;Hole size 12 = 2.00000 METRIC
T12C2.00000
%
G05
G90
T01
X37.846Y16.764
X37.846Y19.264
T02
X14.351Y28.448
X14.351Y16.248
X12.954Y11.938
X25.154Y11.938
T03
X28.575Y30.48
X32.575Y30.48
X36.575Y30.48
T04
X8.23199Y32.512
X21.23201Y32.512
T05
X10.21999Y6.65698
X17.72001Y3.75699
T06
X33.02Y13.04298
X33.02Y1.94307
X28.321Y12.78898
X28.321Y1.68907
X24.384Y23.495
X24.384Y20.955
X24.384Y18.415
X24.384Y15.875
X32.004Y15.875
X32.004Y20.955
X32.004Y23.495
X32.004Y18.415
T07
X51.308Y14.605
X51.308Y28.705
T08
X46.73105Y27.30487
X46.74105Y29.84487
X46.73105Y24.76487
T09
X40.513Y3.302
X45.513Y3.302
X50.513Y3.302
T10
X4.318Y19.304
X4.318Y14.224
X58.547Y21.844
X58.547Y26.924
T11
X40.075Y28.48
X25.075Y34.68
T12
X2.616Y1.143
X2.61582Y34.64089
X60.452Y1.143
X60.452Y34.64089
M30