G04 Layer: TopSolderMaskLayer*
G04 EasyEDA Pro v2.2.46.11, 2026-03-23 14:08:53*
G04 Gerber Generator version 0.3*
G04 Scale: 100 percent, Rotated: No, Reflected: No*
G04 Dimensions in millimeters*
G04 Leading zeros omitted, absolute positions, 4 integers and 5 decimals*
G04 Generated by one-click*
%FSLAX45Y45*%
%MOMM*%
%AMRoundRect*1,1,$1,$2,$3*1,1,$1,$4,$5*1,1,$1,0-$2,0-$3*1,1,$1,0-$4,0-$5*20,1,$1,$2,$3,$4,$5,0*20,1,$1,$4,$5,0-$2,0-$3,0*20,1,$1,0-$2,0-$3,0-$4,0-$5,0*20,1,$1,0-$4,0-$5,$2,$3,0*4,1,4,$2,$3,$4,$5,0-$2,0-$3,0-$4,0-$5,$2,$3,0*%
%ADD10C,2.102*%
%ADD11O,2.702X1.902*%
%ADD12RoundRect,0.09681X-1.30259X-0.90259X-1.30259X0.90259*%
%ADD13C,1.626*%
%ADD14C,1.902*%
%ADD15C,2.007*%
%ADD16C,1.4*%
%ADD17C,2.1*%
%ADD18C,1.9899*%
%ADD19C,1.9816*%
%ADD20R,1.8X1.8*%
%ADD21C,1.8*%
%ADD22R,1.15X1.15*%
%ADD23C,1.15*%
%ADD24R,1.575X1.575*%
%ADD25C,1.575*%
%ADD26R,1.2X1.2*%
%ADD27C,1.2*%
G75*


G04 Pad Start*
G54D10*
G01X431800Y1930400D03*
G01X431800Y1422400D03*
G01X5854700Y2184400D03*
G01X5854700Y2692400D03*
G54D11*
G01X4673105Y2730487D03*
G01X4674095Y2984513D03*
G54D12*
G01X4673105Y2476487D03*
G54D13*
G01X3302000Y1304303D03*
G01X3302000Y194297D03*
G01X2832100Y1278903D03*
G01X2832100Y168897D03*
G54D14*
G01X2438400Y2349500D03*
G01X2438400Y2095500D03*
G01X2438400Y1841500D03*
G01X2438400Y1587500D03*
G54D15*
G01X3200400Y1587500D03*
G54D14*
G01X3200400Y2095500D03*
G01X3200400Y2349500D03*
G54D15*
G01X3200400Y1841500D03*
G54D16*
G01X2857500Y3048000D03*
G01X3257500Y3048000D03*
G01X3657500Y3048000D03*
G54D17*
G01X4007500Y2848000D03*
G01X2507500Y3468000D03*
G54D13*
G01X1021989Y665709D03*
G01X1772001Y375691D03*
G54D19*
G01X823189Y3251200D03*
G01X2123211Y3251200D03*
G54D20*
G01X4051300Y330200D03*
G54D21*
G01X4551300Y330200D03*
G01X5051300Y330200D03*
G54D22*
G01X1435100Y2844800D03*
G54D23*
G01X1435100Y1624800D03*
G54D22*
G01X1295400Y1193800D03*
G54D23*
G01X2515400Y1193800D03*
G54D24*
G01X5130800Y1460500D03*
G54D25*
G01X5130800Y2870500D03*
G54D26*
G01X3784600Y1676400D03*
G54D27*
G01X3784600Y1926400D03*
G54D10*
G01X261600Y114300D03*
G01X261582Y3464089D03*
G01X6045200Y114300D03*
G01X6045200Y3464089D03*
G04 Pad End*

M02*

