G04 Layer: TopSilkscreenLayer*
G04 EasyEDA Pro v2.2.46.11, 2026-03-23 14:08:53*
G04 Gerber Generator version 0.3*
G04 Scale: 100 percent, Rotated: No, Reflected: No*
G04 Dimensions in millimeters*
G04 Leading zeros omitted, absolute positions, 4 integers and 5 decimals*
G04 Generated by one-click*
%FSLAX45Y45*%
%MOMM*%
%ADD10C,0.1524*%
%ADD11C,0.254*%
%ADD12C,0.4*%
%ADD13C,0.2*%
%ADD14C,0.1*%
%ADD15C,0.0548*%
%ADD16C,0.05*%
G75*


G04 Text Start*
G54D10*
G01X956041Y2193798D02*
G01X962391Y2196846D01*
G01X968487Y2203196D01*
G01X971535Y2209292D01*
G01X971535Y2221738D01*
G01X968487Y2227834D01*
G01X962391Y2234184D01*
G01X956041Y2237232D01*
G01X946897Y2240280D01*
G01X931403Y2240280D01*
G01X922005Y2237232D01*
G01X915909Y2234184D01*
G01X909559Y2227834D01*
G01X906511Y2221738D01*
G01X906511Y2209292D01*
G01X909559Y2203196D01*
G01X915909Y2196846D01*
G01X922005Y2193798D01*
G01X971535Y2163572D02*
G01X906511Y2163572D01*
G01X971535Y2163572D02*
G01X906511Y2120392D01*
G01X971535Y2120392D02*
G01X906511Y2120392D01*
G01X959089Y2090166D02*
G01X962391Y2084070D01*
G01X971535Y2074926D01*
G01X906511Y2074926D01*
G01X5330459Y1921002D02*
G01X5324109Y1917954D01*
G01X5318013Y1911604D01*
G01X5314965Y1905508D01*
G01X5314965Y1893062D01*
G01X5318013Y1886966D01*
G01X5324109Y1880616D01*
G01X5330459Y1877568D01*
G01X5339603Y1874520D01*
G01X5355097Y1874520D01*
G01X5364495Y1877568D01*
G01X5370591Y1880616D01*
G01X5376941Y1886966D01*
G01X5379989Y1893062D01*
G01X5379989Y1905508D01*
G01X5376941Y1911604D01*
G01X5370591Y1917954D01*
G01X5364495Y1921002D01*
G01X5314965Y1951228D02*
G01X5379989Y1951228D01*
G01X5314965Y1951228D02*
G01X5379989Y1994408D01*
G01X5314965Y1994408D02*
G01X5379989Y1994408D01*
G01X5330459Y2027682D02*
G01X5327411Y2027682D01*
G01X5321061Y2030730D01*
G01X5318013Y2033778D01*
G01X5314965Y2039874D01*
G01X5314965Y2052320D01*
G01X5318013Y2058670D01*
G01X5321061Y2061718D01*
G01X5327411Y2064766D01*
G01X5333507Y2064766D01*
G01X5339603Y2061718D01*
G01X5349001Y2055368D01*
G01X5379989Y2024634D01*
G01X5379989Y2067814D01*
G01X4244564Y2213849D02*
G01X4247612Y2207753D01*
G01X4253708Y2201403D01*
G01X4260058Y2198355D01*
G01X4269202Y2195307D01*
G01X4284696Y2195307D01*
G01X4294094Y2198355D01*
G01X4300190Y2201403D01*
G01X4306540Y2207753D01*
G01X4309588Y2213849D01*
G01X4309588Y2226295D01*
G01X4306540Y2232391D01*
G01X4300190Y2238741D01*
G01X4294094Y2241789D01*
G01X4284696Y2244837D01*
G01X4269202Y2244837D01*
G01X4260058Y2241789D01*
G01X4253708Y2238741D01*
G01X4247612Y2232391D01*
G01X4244564Y2226295D01*
G01X4244564Y2213849D01*
G01X4297142Y2223247D02*
G01X4315684Y2241789D01*
G01X4257010Y2275063D02*
G01X4253708Y2281159D01*
G01X4244564Y2290303D01*
G01X4309588Y2290303D01*
G01X3539175Y1379136D02*
G01X3474151Y1379136D01*
G01X3539175Y1379136D02*
G01X3539175Y1351196D01*
G01X3536127Y1342052D01*
G01X3533079Y1339004D01*
G01X3526729Y1335702D01*
G01X3520633Y1335702D01*
G01X3514537Y1339004D01*
G01X3511489Y1342052D01*
G01X3508187Y1351196D01*
G01X3508187Y1379136D01*
G01X3508187Y1357546D02*
G01X3474151Y1335702D01*
G01X3526729Y1305476D02*
G01X3530031Y1299380D01*
G01X3539175Y1290236D01*
G01X3474151Y1290236D01*
G01X3069275Y1353736D02*
G01X3004251Y1353736D01*
G01X3069275Y1353736D02*
G01X3069275Y1325796D01*
G01X3066227Y1316652D01*
G01X3063179Y1313604D01*
G01X3056829Y1310302D01*
G01X3050733Y1310302D01*
G01X3044637Y1313604D01*
G01X3041589Y1316652D01*
G01X3038287Y1325796D01*
G01X3038287Y1353736D01*
G01X3038287Y1332146D02*
G01X3004251Y1310302D01*
G01X3053781Y1277028D02*
G01X3056829Y1277028D01*
G01X3063179Y1273980D01*
G01X3066227Y1270932D01*
G01X3069275Y1264836D01*
G01X3069275Y1252390D01*
G01X3066227Y1246040D01*
G01X3063179Y1242992D01*
G01X3056829Y1239944D01*
G01X3050733Y1239944D01*
G01X3044637Y1242992D01*
G01X3035239Y1249342D01*
G01X3004251Y1280076D01*
G01X3004251Y1236896D01*
G01X3402584Y2473706D02*
G01X3356102Y2473706D01*
G01X3346958Y2470658D01*
G01X3340608Y2464308D01*
G01X3337560Y2455164D01*
G01X3337560Y2448814D01*
G01X3340608Y2439670D01*
G01X3346958Y2433574D01*
G01X3356102Y2430272D01*
G01X3402584Y2430272D01*
G01X3390138Y2400046D02*
G01X3393440Y2393950D01*
G01X3402584Y2384806D01*
G01X3337560Y2384806D01*
G01X4209880Y2531066D02*
G01X4209880Y2577548D01*
G01X4206832Y2586692D01*
G01X4200482Y2593042D01*
G01X4191338Y2596090D01*
G01X4184988Y2596090D01*
G01X4175844Y2593042D01*
G01X4169748Y2586692D01*
G01X4166446Y2577548D01*
G01X4166446Y2531066D01*
G01X4133172Y2546560D02*
G01X4133172Y2543512D01*
G01X4130124Y2537162D01*
G01X4127076Y2534114D01*
G01X4120980Y2531066D01*
G01X4108534Y2531066D01*
G01X4102184Y2534114D01*
G01X4099136Y2537162D01*
G01X4096088Y2543512D01*
G01X4096088Y2549608D01*
G01X4099136Y2555704D01*
G01X4105486Y2565102D01*
G01X4136220Y2596090D01*
G01X4093040Y2596090D01*
G01X738401Y833349D02*
G01X735353Y839699D01*
G01X729003Y845795D01*
G01X722907Y848843D01*
G01X710461Y848843D01*
G01X704365Y845795D01*
G01X698015Y839699D01*
G01X694967Y833349D01*
G01X691919Y824205D01*
G01X691919Y808711D01*
G01X694967Y799313D01*
G01X698015Y793217D01*
G01X704365Y786867D01*
G01X710461Y783819D01*
G01X722907Y783819D01*
G01X729003Y786867D01*
G01X735353Y793217D01*
G01X738401Y799313D01*
G01X768627Y836397D02*
G01X774723Y839699D01*
G01X783867Y848843D01*
G01X783867Y783819D01*
G01X736829Y3530834D02*
G01X736829Y3465810D01*
G01X736829Y3530834D02*
G01X764769Y3530834D01*
G01X773913Y3527786D01*
G01X776961Y3524738D01*
G01X780263Y3518388D01*
G01X780263Y3512292D01*
G01X776961Y3506196D01*
G01X773913Y3503148D01*
G01X764769Y3499846D01*
G01X736829Y3499846D01*
G01X758419Y3499846D02*
G01X780263Y3465810D01*
G01X816585Y3530834D02*
G01X850621Y3530834D01*
G01X832079Y3506196D01*
G01X841223Y3506196D01*
G01X847573Y3503148D01*
G01X850621Y3499846D01*
G01X853669Y3490702D01*
G01X853669Y3484352D01*
G01X850621Y3475208D01*
G01X844525Y3468858D01*
G01X835127Y3465810D01*
G01X825729Y3465810D01*
G01X816585Y3468858D01*
G01X813537Y3472160D01*
G01X810489Y3478256D01*
G01X3603920Y1142134D02*
G01X3603920Y1095652D01*
G01X3606968Y1086508D01*
G01X3613318Y1080158D01*
G01X3622462Y1077110D01*
G01X3628812Y1077110D01*
G01X3637956Y1080158D01*
G01X3644052Y1086508D01*
G01X3647354Y1095652D01*
G01X3647354Y1142134D01*
G01X3683676Y1142134D02*
G01X3717712Y1142134D01*
G01X3699170Y1117496D01*
G01X3708314Y1117496D01*
G01X3714664Y1114448D01*
G01X3717712Y1111146D01*
G01X3720760Y1102002D01*
G01X3720760Y1095652D01*
G01X3717712Y1086508D01*
G01X3711616Y1080158D01*
G01X3702218Y1077110D01*
G01X3692820Y1077110D01*
G01X3683676Y1080158D01*
G01X3680628Y1083460D01*
G01X3677580Y1089556D01*
G01X1679534Y2922180D02*
G01X1633052Y2922180D01*
G01X1623908Y2919132D01*
G01X1617558Y2912782D01*
G01X1614510Y2903638D01*
G01X1614510Y2897288D01*
G01X1617558Y2888144D01*
G01X1623908Y2882048D01*
G01X1633052Y2878746D01*
G01X1679534Y2878746D01*
G01X1679534Y2817786D02*
G01X1636354Y2848520D01*
G01X1636354Y2802292D01*
G01X1679534Y2817786D02*
G01X1614510Y2817786D01*
G01X1218020Y1438234D02*
G01X1218020Y1391752D01*
G01X1221068Y1382608D01*
G01X1227418Y1376258D01*
G01X1236562Y1373210D01*
G01X1242912Y1373210D01*
G01X1252056Y1376258D01*
G01X1258152Y1382608D01*
G01X1261454Y1391752D01*
G01X1261454Y1438234D01*
G01X1328764Y1438234D02*
G01X1297776Y1438234D01*
G01X1294728Y1410548D01*
G01X1297776Y1413596D01*
G01X1306920Y1416644D01*
G01X1316318Y1416644D01*
G01X1325716Y1413596D01*
G01X1331812Y1407246D01*
G01X1334860Y1398102D01*
G01X1334860Y1391752D01*
G01X1331812Y1382608D01*
G01X1325716Y1376258D01*
G01X1316318Y1373210D01*
G01X1306920Y1373210D01*
G01X1297776Y1376258D01*
G01X1294728Y1379560D01*
G01X1291680Y1385656D01*
G01X4868366Y1361820D02*
G01X4914848Y1361820D01*
G01X4923992Y1364868D01*
G01X4930342Y1371218D01*
G01X4933390Y1380362D01*
G01X4933390Y1386712D01*
G01X4930342Y1395856D01*
G01X4923992Y1401952D01*
G01X4914848Y1405254D01*
G01X4868366Y1405254D01*
G01X4877510Y1472564D02*
G01X4871414Y1469516D01*
G01X4868366Y1460118D01*
G01X4868366Y1454022D01*
G01X4871414Y1444624D01*
G01X4880812Y1438528D01*
G01X4896052Y1435480D01*
G01X4911546Y1435480D01*
G01X4923992Y1438528D01*
G01X4930342Y1444624D01*
G01X4933390Y1454022D01*
G01X4933390Y1457070D01*
G01X4930342Y1466214D01*
G01X4923992Y1472564D01*
G01X4914848Y1475612D01*
G01X4911546Y1475612D01*
G01X4902402Y1472564D01*
G01X4896052Y1466214D01*
G01X4893004Y1457070D01*
G01X4893004Y1454022D01*
G01X4896052Y1444624D01*
G01X4902402Y1438528D01*
G01X4911546Y1435480D01*
G01X3415166Y1429020D02*
G01X3461648Y1429020D01*
G01X3470792Y1432068D01*
G01X3477142Y1438418D01*
G01X3480190Y1447562D01*
G01X3480190Y1453912D01*
G01X3477142Y1463056D01*
G01X3470792Y1469152D01*
G01X3461648Y1472454D01*
G01X3415166Y1472454D01*
G01X3415166Y1545860D02*
G01X3480190Y1514872D01*
G01X3415166Y1502680D02*
G01X3415166Y1545860D01*
G01X115042Y409702D02*
G01X108692Y415798D01*
G01X99548Y418846D01*
G01X87102Y418846D01*
G01X77704Y415798D01*
G01X71608Y409702D01*
G01X71608Y403352D01*
G01X74656Y397256D01*
G01X77704Y394208D01*
G01X84054Y391160D01*
G01X102596Y384810D01*
G01X108692Y381762D01*
G01X111740Y378714D01*
G01X115042Y372364D01*
G01X115042Y363220D01*
G01X108692Y356870D01*
G01X99548Y353822D01*
G01X87102Y353822D01*
G01X77704Y356870D01*
G01X71608Y363220D01*
G01X191496Y403352D02*
G01X188448Y409702D01*
G01X182352Y415798D01*
G01X176002Y418846D01*
G01X163810Y418846D01*
G01X157460Y415798D01*
G01X151364Y409702D01*
G01X148316Y403352D01*
G01X145268Y394208D01*
G01X145268Y378714D01*
G01X148316Y369316D01*
G01X151364Y363220D01*
G01X157460Y356870D01*
G01X163810Y353822D01*
G01X176002Y353822D01*
G01X182352Y356870D01*
G01X188448Y363220D01*
G01X191496Y369316D01*
G01X221722Y418846D02*
G01X221722Y353822D01*
G01X221722Y418846D02*
G01X249408Y418846D01*
G01X258806Y415798D01*
G01X261854Y412750D01*
G01X264902Y406400D01*
G01X264902Y400304D01*
G01X261854Y394208D01*
G01X258806Y391160D01*
G01X249408Y387858D01*
G01X221722Y387858D01*
G01X243312Y387858D02*
G01X264902Y353822D01*
G01X295128Y418846D02*
G01X295128Y353822D01*
G01X295128Y418846D02*
G01X335260Y418846D01*
G01X295128Y387858D02*
G01X319766Y387858D01*
G01X295128Y353822D02*
G01X335260Y353822D01*
G01X365486Y418846D02*
G01X380726Y353822D01*
G01X396220Y418846D02*
G01X380726Y353822D01*
G01X396220Y418846D02*
G01X411714Y353822D01*
G01X427208Y418846D02*
G01X411714Y353822D01*
G01X457434Y406400D02*
G01X463530Y409702D01*
G01X472674Y418846D01*
G01X472674Y353822D01*
G01X115024Y3759491D02*
G01X108674Y3765587D01*
G01X99530Y3768635D01*
G01X87084Y3768635D01*
G01X77686Y3765587D01*
G01X71590Y3759491D01*
G01X71590Y3753141D01*
G01X74638Y3747045D01*
G01X77686Y3743997D01*
G01X84036Y3740949D01*
G01X102578Y3734599D01*
G01X108674Y3731551D01*
G01X111722Y3728503D01*
G01X115024Y3722153D01*
G01X115024Y3713009D01*
G01X108674Y3706659D01*
G01X99530Y3703611D01*
G01X87084Y3703611D01*
G01X77686Y3706659D01*
G01X71590Y3713009D01*
G01X191478Y3753141D02*
G01X188430Y3759491D01*
G01X182334Y3765587D01*
G01X175984Y3768635D01*
G01X163792Y3768635D01*
G01X157442Y3765587D01*
G01X151346Y3759491D01*
G01X148298Y3753141D01*
G01X145250Y3743997D01*
G01X145250Y3728503D01*
G01X148298Y3719105D01*
G01X151346Y3713009D01*
G01X157442Y3706659D01*
G01X163792Y3703611D01*
G01X175984Y3703611D01*
G01X182334Y3706659D01*
G01X188430Y3713009D01*
G01X191478Y3719105D01*
G01X221704Y3768635D02*
G01X221704Y3703611D01*
G01X221704Y3768635D02*
G01X249390Y3768635D01*
G01X258788Y3765587D01*
G01X261836Y3762539D01*
G01X264884Y3756189D01*
G01X264884Y3750093D01*
G01X261836Y3743997D01*
G01X258788Y3740949D01*
G01X249390Y3737647D01*
G01X221704Y3737647D01*
G01X243294Y3737647D02*
G01X264884Y3703611D01*
G01X295110Y3768635D02*
G01X295110Y3703611D01*
G01X295110Y3768635D02*
G01X335242Y3768635D01*
G01X295110Y3737647D02*
G01X319748Y3737647D01*
G01X295110Y3703611D02*
G01X335242Y3703611D01*
G01X365468Y3768635D02*
G01X380708Y3703611D01*
G01X396202Y3768635D02*
G01X380708Y3703611D01*
G01X396202Y3768635D02*
G01X411696Y3703611D01*
G01X427190Y3768635D02*
G01X411696Y3703611D01*
G01X460464Y3753141D02*
G01X460464Y3756189D01*
G01X463512Y3762539D01*
G01X466560Y3765587D01*
G01X472656Y3768635D01*
G01X485102Y3768635D01*
G01X491452Y3765587D01*
G01X494500Y3762539D01*
G01X497548Y3756189D01*
G01X497548Y3750093D01*
G01X494500Y3743997D01*
G01X488150Y3734599D01*
G01X457416Y3703611D01*
G01X500596Y3703611D01*
G01X5898642Y409702D02*
G01X5892292Y415798D01*
G01X5883148Y418846D01*
G01X5870702Y418846D01*
G01X5861304Y415798D01*
G01X5855208Y409702D01*
G01X5855208Y403352D01*
G01X5858256Y397256D01*
G01X5861304Y394208D01*
G01X5867654Y391160D01*
G01X5886196Y384810D01*
G01X5892292Y381762D01*
G01X5895340Y378714D01*
G01X5898642Y372364D01*
G01X5898642Y363220D01*
G01X5892292Y356870D01*
G01X5883148Y353822D01*
G01X5870702Y353822D01*
G01X5861304Y356870D01*
G01X5855208Y363220D01*
G01X5975096Y403352D02*
G01X5972048Y409702D01*
G01X5965952Y415798D01*
G01X5959602Y418846D01*
G01X5947410Y418846D01*
G01X5941060Y415798D01*
G01X5934964Y409702D01*
G01X5931916Y403352D01*
G01X5928868Y394208D01*
G01X5928868Y378714D01*
G01X5931916Y369316D01*
G01X5934964Y363220D01*
G01X5941060Y356870D01*
G01X5947410Y353822D01*
G01X5959602Y353822D01*
G01X5965952Y356870D01*
G01X5972048Y363220D01*
G01X5975096Y369316D01*
G01X6005322Y418846D02*
G01X6005322Y353822D01*
G01X6005322Y418846D02*
G01X6033008Y418846D01*
G01X6042406Y415798D01*
G01X6045454Y412750D01*
G01X6048502Y406400D01*
G01X6048502Y400304D01*
G01X6045454Y394208D01*
G01X6042406Y391160D01*
G01X6033008Y387858D01*
G01X6005322Y387858D01*
G01X6026912Y387858D02*
G01X6048502Y353822D01*
G01X6078728Y418846D02*
G01X6078728Y353822D01*
G01X6078728Y418846D02*
G01X6118860Y418846D01*
G01X6078728Y387858D02*
G01X6103366Y387858D01*
G01X6078728Y353822D02*
G01X6118860Y353822D01*
G01X6149086Y418846D02*
G01X6164326Y353822D01*
G01X6179820Y418846D02*
G01X6164326Y353822D01*
G01X6179820Y418846D02*
G01X6195314Y353822D01*
G01X6210808Y418846D02*
G01X6195314Y353822D01*
G01X6247130Y418846D02*
G01X6281166Y418846D01*
G01X6262624Y394208D01*
G01X6271768Y394208D01*
G01X6278118Y391160D01*
G01X6281166Y387858D01*
G01X6284214Y378714D01*
G01X6284214Y372364D01*
G01X6281166Y363220D01*
G01X6275070Y356870D01*
G01X6265672Y353822D01*
G01X6256274Y353822D01*
G01X6247130Y356870D01*
G01X6244082Y360172D01*
G01X6241034Y366268D01*
G01X5898642Y3759491D02*
G01X5892292Y3765587D01*
G01X5883148Y3768635D01*
G01X5870702Y3768635D01*
G01X5861304Y3765587D01*
G01X5855208Y3759491D01*
G01X5855208Y3753141D01*
G01X5858256Y3747045D01*
G01X5861304Y3743997D01*
G01X5867654Y3740949D01*
G01X5886196Y3734599D01*
G01X5892292Y3731551D01*
G01X5895340Y3728503D01*
G01X5898642Y3722153D01*
G01X5898642Y3713009D01*
G01X5892292Y3706659D01*
G01X5883148Y3703611D01*
G01X5870702Y3703611D01*
G01X5861304Y3706659D01*
G01X5855208Y3713009D01*
G01X5975096Y3753141D02*
G01X5972048Y3759491D01*
G01X5965952Y3765587D01*
G01X5959602Y3768635D01*
G01X5947410Y3768635D01*
G01X5941060Y3765587D01*
G01X5934964Y3759491D01*
G01X5931916Y3753141D01*
G01X5928868Y3743997D01*
G01X5928868Y3728503D01*
G01X5931916Y3719105D01*
G01X5934964Y3713009D01*
G01X5941060Y3706659D01*
G01X5947410Y3703611D01*
G01X5959602Y3703611D01*
G01X5965952Y3706659D01*
G01X5972048Y3713009D01*
G01X5975096Y3719105D01*
G01X6005322Y3768635D02*
G01X6005322Y3703611D01*
G01X6005322Y3768635D02*
G01X6033008Y3768635D01*
G01X6042406Y3765587D01*
G01X6045454Y3762539D01*
G01X6048502Y3756189D01*
G01X6048502Y3750093D01*
G01X6045454Y3743997D01*
G01X6042406Y3740949D01*
G01X6033008Y3737647D01*
G01X6005322Y3737647D01*
G01X6026912Y3737647D02*
G01X6048502Y3703611D01*
G01X6078728Y3768635D02*
G01X6078728Y3703611D01*
G01X6078728Y3768635D02*
G01X6118860Y3768635D01*
G01X6078728Y3737647D02*
G01X6103366Y3737647D01*
G01X6078728Y3703611D02*
G01X6118860Y3703611D01*
G01X6149086Y3768635D02*
G01X6164326Y3703611D01*
G01X6179820Y3768635D02*
G01X6164326Y3703611D01*
G01X6179820Y3768635D02*
G01X6195314Y3703611D01*
G01X6210808Y3768635D02*
G01X6195314Y3703611D01*
G01X6271768Y3768635D02*
G01X6241034Y3725455D01*
G01X6287262Y3725455D01*
G01X6271768Y3768635D02*
G01X6271768Y3703611D01*
G04 Text End*

G04 PolygonModel Start*
G54D11*
G01X51801Y1533172D02*
G01X204201Y1533172D01*
G01X204201Y1533172D02*
G01X204201Y1320800D01*
G01X204201Y1320800D02*
G01X51801Y1320800D01*
G01X51801Y2041172D02*
G01X204201Y2041172D01*
G01X204201Y2041172D02*
G01X204201Y1828800D01*
G01X204201Y1828800D02*
G01X51801Y1828800D01*
G01X851901Y2235200D02*
G01X51801Y2235200D01*
G01X51801Y2235200D02*
G01X51801Y1117600D01*
G01X51801Y1117600D02*
G01X851901Y1117600D01*
G01X851901Y1117600D02*
G01X851901Y2235200D01*
G36*
G01X178801Y1930400D02*
G01X140701Y2019300D01*
G01X140701Y1841500D01*
G01X178801Y1930400D01*
G37*
G36*
G01X140701Y1955800D02*
G01X64501Y1955800D01*
G01X64501Y1905000D01*
G01X140701Y1905000D01*
G01X140701Y1955800D01*
G37*
G36*
G01X140701Y1447800D02*
G01X64501Y1447800D01*
G01X64501Y1397000D01*
G01X140701Y1397000D01*
G01X140701Y1447800D01*
G37*
G36*
G01X178801Y1422400D02*
G01X140701Y1511300D01*
G01X140701Y1333500D01*
G01X178801Y1422400D01*
G37*
G01X6234699Y2581628D02*
G01X6082299Y2581628D01*
G01X6082299Y2581628D02*
G01X6082299Y2794000D01*
G01X6082299Y2794000D02*
G01X6234699Y2794000D01*
G01X6234699Y2073628D02*
G01X6082299Y2073628D01*
G01X6082299Y2073628D02*
G01X6082299Y2286000D01*
G01X6082299Y2286000D02*
G01X6234699Y2286000D01*
G01X5434599Y1879600D02*
G01X6234699Y1879600D01*
G01X6234699Y1879600D02*
G01X6234699Y2997200D01*
G01X6234699Y2997200D02*
G01X5434599Y2997200D01*
G01X5434599Y2997200D02*
G01X5434599Y1879600D01*
G36*
G01X6107699Y2184400D02*
G01X6145799Y2095500D01*
G01X6145799Y2273300D01*
G01X6107699Y2184400D01*
G37*
G36*
G01X6145799Y2159000D02*
G01X6221999Y2159000D01*
G01X6221999Y2209800D01*
G01X6145799Y2209800D01*
G01X6145799Y2159000D01*
G37*
G36*
G01X6145799Y2667000D02*
G01X6221999Y2667000D01*
G01X6221999Y2717800D01*
G01X6145799Y2717800D01*
G01X6145799Y2667000D01*
G37*
G36*
G01X6107699Y2692400D02*
G01X6145799Y2603500D01*
G01X6145799Y2781300D01*
G01X6107699Y2692400D01*
G37*
G01X4364198Y2200387D02*
G01X4364198Y3260588D01*
G01X4364198Y3260588D02*
G01X4844006Y3260588D01*
G01X4844006Y3260588D02*
G01X4844006Y2200387D01*
G01X4844006Y2200387D02*
G01X4364706Y2200387D01*
G01X4364706Y2200387D02*
G01X4364198Y2200387D01*
G01X4424114Y3260484D02*
G01X4424114Y2200491D01*
G54D12*
G01X4906604Y2453490D02*
G03X4946604Y2453617I20000J127D01*
G03X4906604Y2453744I-20000J0D01*
G54D11*
G01X3417001Y1104311D02*
G01X3417001Y394307D01*
G01X3186999Y394307D02*
G01X3186999Y1104308D01*
G01X3186999Y394307D02*
G01X3417001Y394307D01*
G01X3186999Y1104308D02*
G01X3417001Y1104308D01*
G01X2947101Y1078911D02*
G01X2947101Y368907D01*
G01X2717099Y368907D02*
G01X2717099Y1078908D01*
G01X2717099Y368907D02*
G01X2947101Y368907D01*
G01X2717099Y1078908D02*
G01X2947101Y1078908D01*
G01X3085986Y1468498D02*
G01X2555408Y1468498D01*
G01X2694432Y2468626D02*
G01X2555408Y2468626D01*
G01X3085986Y2468502D02*
G01X2944401Y2468502D01*
G01X2555408Y2468502D02*
G01X2555408Y1468501D01*
G01X3085986Y2468502D02*
G01X3085986Y1468498D01*
G01X2944401Y2468502D02*
G02X2694432Y2468626I-124984J622D01*
G36*
G01X2641600Y2403297D02*
G02X2641600Y2321103I0J-41097D01*
G02X2641600Y2403297I0J41097D01*
G37*
G54D13*
G01X4057500Y2823000D02*
G01X2457500Y2823000D01*
G01X2457500Y2823000D02*
G01X2457500Y3493000D01*
G01X2457500Y3493000D02*
G01X4057500Y3493000D01*
G01X4057500Y3493000D02*
G01X4057500Y2823000D01*
G54D14*
G01X4212500Y2643000D02*
G01X2302500Y2643000D01*
G01X2302500Y2643000D02*
G01X2302500Y3673000D01*
G01X2302500Y3673000D02*
G01X4212500Y3673000D01*
G01X4212500Y3673000D02*
G01X4212500Y2643000D01*
G01X3857500Y2823000D02*
G01X2457500Y2823000D01*
G01X2457500Y2823000D02*
G01X2457500Y3258000D01*
G01X4057500Y3048000D02*
G01X4057500Y3493000D01*
G01X4057500Y3493000D02*
G01X2757500Y3493000D01*
G54D11*
G01X1432982Y521447D02*
G01X1906981Y521447D01*
G01X1361001Y519953D02*
G01X887001Y519953D01*
G01X1432984Y400700D02*
G01X1432984Y640697D01*
G01X1361001Y640700D02*
G01X1361001Y400700D01*
G01X1866664Y345704D02*
G01X2097001Y345704D01*
G01X696999Y345704D02*
G01X1677337Y345704D01*
G01X1116650Y695701D02*
G01X2097001Y695701D01*
G01X696999Y695701D02*
G01X927329Y695701D01*
G01X2097001Y695701D02*
G01X2097001Y345704D01*
G01X696999Y695701D02*
G01X696999Y345704D01*
G01X1023201Y3091200D02*
G01X1023201Y3411200D01*
G01X1023201Y3411200D02*
G01X1923199Y3411200D01*
G01X1923199Y3411200D02*
G01X1923199Y3091200D01*
G01X1923199Y3091200D02*
G01X1023201Y3091200D01*
G54D14*
G01X3701300Y930200D02*
G01X5401300Y930200D01*
G01X5401300Y930200D02*
G01X5401300Y-19800D01*
G01X5401300Y-19800D02*
G01X3701300Y-19800D01*
G01X3701300Y-19800D02*
G01X3701300Y930200D01*
G54D13*
G01X3701300Y930200D02*
G01X5401300Y930200D01*
G01X5401300Y930200D02*
G01X5401300Y-19800D01*
G01X5401300Y-19800D02*
G01X3701300Y-19800D01*
G01X3701300Y-19800D02*
G01X3701300Y930200D01*
G54D14*
G01X3601300Y1030200D02*
G01X5501300Y1030200D01*
G01X5501300Y1030200D02*
G01X5501300Y-2119800D01*
G01X5501300Y-2119800D02*
G01X3601300Y-2119800D01*
G01X3601300Y-2119800D02*
G01X3601300Y1030200D01*
G01X4901300Y-19800D02*
G01X4901300Y-469800D01*
G01X4901300Y-469800D02*
G01X4851300Y-519800D01*
G01X4851300Y-519800D02*
G01X4251300Y-519800D01*
G01X4251300Y-519800D02*
G01X4201300Y-469800D01*
G01X4201300Y-469800D02*
G01X4201300Y-19800D01*
G01X4851300Y-519800D02*
G01X4851300Y-669800D01*
G01X4851300Y-669800D02*
G01X4801300Y-719800D01*
G01X4801300Y-719800D02*
G01X4301300Y-719800D01*
G01X4301300Y-719800D02*
G01X4251300Y-669800D01*
G01X4251300Y-669800D02*
G01X4251300Y-519800D01*
G01X4801300Y-719800D02*
G01X4801300Y-1019800D01*
G01X4801300Y-1019800D02*
G01X4851300Y-1069800D01*
G01X4851300Y-1069800D02*
G01X4851300Y-1969800D01*
G01X4851300Y-1969800D02*
G01X4801300Y-2019800D01*
G01X4801300Y-2019800D02*
G01X4601300Y-2019800D01*
G01X4601300Y-2019800D02*
G01X4601300Y-919800D01*
G01X4601300Y-919800D02*
G01X4501300Y-919800D01*
G01X4501300Y-919800D02*
G01X4501300Y-2019800D01*
G01X4501300Y-2019800D02*
G01X4301300Y-2019800D01*
G01X4301300Y-2019800D02*
G01X4251300Y-1969800D01*
G01X4251300Y-1969800D02*
G01X4251300Y-1069800D01*
G01X4251300Y-1069800D02*
G01X4301300Y-1019800D01*
G01X4301300Y-1019800D02*
G01X4301300Y-719800D01*
G01X4601300Y-1019800D02*
G01X4801300Y-1019800D01*
G01X4601300Y-1069800D02*
G01X4851300Y-1069800D01*
G01X4501300Y-1019800D02*
G01X4301300Y-1019800D01*
G01X4251300Y-1069800D02*
G01X4501300Y-1069800D01*
G01X4251300Y-1969800D02*
G01X4501300Y-1969800D01*
G01X4601300Y-1969800D02*
G01X4851300Y-1969800D01*
G01X4201300Y-469800D02*
G01X4901300Y-469800D01*
G01X4251300Y-669800D02*
G01X4851300Y-669800D01*
G01X4801300Y-1069800D02*
G01X4801300Y-1969800D01*
G01X4751300Y-1069800D02*
G01X4751300Y-1969800D01*
G01X4701300Y-1069800D02*
G01X4701300Y-1969800D01*
G01X4651300Y-1069800D02*
G01X4651300Y-1969800D01*
G01X4451300Y-1069800D02*
G01X4451300Y-1969800D01*
G01X4401300Y-1069800D02*
G01X4401300Y-1969800D01*
G01X4351300Y-1069800D02*
G01X4351300Y-1969800D01*
G01X4301300Y-1069800D02*
G01X4301300Y-1969800D01*
G54D13*
G01X4201300Y-19800D02*
G01X4201300Y-469800D01*
G01X4201300Y-469800D02*
G01X4251300Y-519800D01*
G01X4251300Y-519800D02*
G01X4851300Y-519800D01*
G01X4851300Y-519800D02*
G01X4901300Y-469800D01*
G01X4901300Y-469800D02*
G01X4901300Y-19800D01*
G01X4201300Y-469800D02*
G01X4901300Y-469800D01*
G01X4851300Y-519800D02*
G01X4851300Y-669800D01*
G01X4851300Y-669800D02*
G01X4801300Y-719800D01*
G01X4801300Y-719800D02*
G01X4301300Y-719800D01*
G01X4301300Y-719800D02*
G01X4251300Y-669800D01*
G01X4251300Y-669800D02*
G01X4251300Y-519800D01*
G01X4251300Y-669800D02*
G01X4851300Y-669800D01*
G01X4301300Y-719800D02*
G01X4301300Y-1019800D01*
G01X4301300Y-1019800D02*
G01X4251300Y-1069800D01*
G01X4251300Y-1069800D02*
G01X4251300Y-1969800D01*
G01X4251300Y-1969800D02*
G01X4301300Y-2019800D01*
G01X4301300Y-2019800D02*
G01X4501300Y-2019800D01*
G01X4501300Y-2019800D02*
G01X4501300Y-919800D01*
G01X4501300Y-919800D02*
G01X4601300Y-919800D01*
G01X4601300Y-919800D02*
G01X4601300Y-2019800D01*
G01X4601300Y-2019800D02*
G01X4801300Y-2019800D01*
G01X4801300Y-2019800D02*
G01X4851300Y-1969800D01*
G01X4851300Y-1969800D02*
G01X4851300Y-1069800D01*
G01X4851300Y-1069800D02*
G01X4801300Y-1019800D01*
G01X4801300Y-1019800D02*
G01X4801300Y-719800D01*
G01X4301300Y-1019800D02*
G01X4501300Y-1019800D01*
G01X4801300Y-1019800D02*
G01X4601300Y-1019800D01*
G01X4251300Y-1069800D02*
G01X4501300Y-1069800D01*
G01X4601300Y-1069800D02*
G01X4851300Y-1069800D01*
G01X4251300Y-1969800D02*
G01X4501300Y-1969800D01*
G01X4601300Y-1969800D02*
G01X4851300Y-1969800D01*
G01X4451300Y-1069800D02*
G01X4451300Y-1969800D01*
G01X4401300Y-1069800D02*
G01X4401300Y-1969800D01*
G01X4351300Y-1069800D02*
G01X4351300Y-1969800D01*
G01X4301300Y-1069800D02*
G01X4301300Y-1969800D01*
G01X4801300Y-1069800D02*
G01X4801300Y-1969800D01*
G01X4751300Y-1069800D02*
G01X4751300Y-1969800D01*
G01X4701300Y-1069800D02*
G01X4701300Y-1969800D01*
G01X4651300Y-1069800D02*
G01X4651300Y-1969800D01*
G54D14*
G01X3651300Y330200D02*
G03X3641300Y330200I-5000J0D01*
G01X3641300Y330200D02*
G03X3651300Y330200I5000J0D01*
G54D16*
G01X1570100Y2927300D02*
G01X1570100Y1542300D01*
G01X1570100Y1542300D02*
G01X1300100Y1542300D01*
G01X1300100Y1542300D02*
G01X1300100Y2927300D01*
G01X1300100Y2927300D02*
G01X1570100Y2927300D01*
G54D14*
G01X1535100Y2444800D02*
G01X1535100Y2024800D01*
G01X1535100Y2024800D02*
G01X1335100Y2024800D01*
G01X1335100Y2024800D02*
G01X1335100Y2444800D01*
G01X1335100Y2444800D02*
G01X1535100Y2444800D01*
G01X1435100Y2444800D02*
G01X1535100Y2344800D01*
G01X1435100Y2844800D02*
G01X1435100Y2444800D01*
G01X1435100Y2024800D02*
G01X1435100Y1624800D01*
G54D13*
G01X1535100Y2444800D02*
G01X1535100Y2024800D01*
G01X1535100Y2024800D02*
G01X1335100Y2024800D01*
G01X1335100Y2024800D02*
G01X1335100Y2444800D01*
G01X1335100Y2444800D02*
G01X1535100Y2444800D01*
G01X1435100Y2444800D02*
G01X1535100Y2344800D01*
G01X1435100Y2752300D02*
G01X1435100Y2444800D01*
G01X1435100Y2024800D02*
G01X1435100Y1717300D01*
G54D16*
G01X1212900Y1328800D02*
G01X2597900Y1328800D01*
G01X2597900Y1328800D02*
G01X2597900Y1058800D01*
G01X2597900Y1058800D02*
G01X1212900Y1058800D01*
G01X1212900Y1058800D02*
G01X1212900Y1328800D01*
G54D14*
G01X1695400Y1293800D02*
G01X2115400Y1293800D01*
G01X2115400Y1293800D02*
G01X2115400Y1093800D01*
G01X2115400Y1093800D02*
G01X1695400Y1093800D01*
G01X1695400Y1093800D02*
G01X1695400Y1293800D01*
G01X1695400Y1193800D02*
G01X1795400Y1293800D01*
G01X1295400Y1193800D02*
G01X1695400Y1193800D01*
G01X2115400Y1193800D02*
G01X2515400Y1193800D01*
G54D13*
G01X1695400Y1293800D02*
G01X2115400Y1293800D01*
G01X2115400Y1293800D02*
G01X2115400Y1093800D01*
G01X2115400Y1093800D02*
G01X1695400Y1093800D01*
G01X1695400Y1093800D02*
G01X1695400Y1293800D01*
G01X1695400Y1193800D02*
G01X1795400Y1293800D01*
G01X1387900Y1193800D02*
G01X1695400Y1193800D01*
G01X2115400Y1193800D02*
G01X2422900Y1193800D01*
G54D16*
G01X4977800Y1356700D02*
G01X4977800Y2974200D01*
G01X4977800Y2974200D02*
G01X5283800Y2974200D01*
G01X5283800Y2974200D02*
G01X5283800Y1356700D01*
G01X5283800Y1356700D02*
G01X4977800Y1356700D01*
G54D14*
G01X5012800Y1933700D02*
G01X5012800Y2397200D01*
G01X5012800Y2397200D02*
G01X5248800Y2397200D01*
G01X5248800Y2397200D02*
G01X5248800Y1933700D01*
G01X5248800Y1933700D02*
G01X5012800Y1933700D01*
G01X5130800Y1933700D02*
G01X5012800Y2051700D01*
G01X5130800Y1460500D02*
G01X5130800Y1933700D01*
G01X5130800Y2397300D02*
G01X5130800Y2870500D01*
G54D13*
G01X5012800Y1933700D02*
G01X5012800Y2397300D01*
G01X5012800Y2397300D02*
G01X5248800Y2397300D01*
G01X5248800Y2397300D02*
G01X5248800Y1933700D01*
G01X5248800Y1933700D02*
G01X5012800Y1933700D01*
G01X5130800Y1933700D02*
G01X5012800Y2051700D01*
G01X5130800Y1574300D02*
G01X5130800Y1933700D01*
G01X5130800Y2397300D02*
G01X5130800Y2756700D01*
G54D14*
G01X3942100Y1526400D02*
G01X3942100Y2076400D01*
G01X3942100Y2076400D02*
G01X3627100Y2076400D01*
G01X3627100Y2076400D02*
G01X3627100Y1526400D01*
G01X3627100Y1526400D02*
G01X3942100Y1526400D01*
G01X3527100Y1426400D02*
G01X3527100Y2176400D01*
G01X3527100Y2176400D02*
G01X4042100Y2176400D01*
G01X4042100Y2176400D02*
G01X4042100Y1426400D01*
G01X4042100Y1426400D02*
G01X3527100Y1426400D01*
G54D13*
G01X3627100Y1526400D02*
G01X3627100Y2076400D01*
G01X3627100Y2076400D02*
G01X3942100Y2076400D01*
G01X3942100Y2076400D02*
G01X3942100Y1526400D01*
G01X3942100Y1526400D02*
G01X3627100Y1526400D01*
G54D14*
G01X3784600Y1466400D02*
G03X3784600Y1476400I0J5000D01*
G01X3784600Y1476400D02*
G03X3784600Y1466400I0J-5000D01*
G54D10*
G01X261600Y114300D02*
G01X393680Y246380D01*
G01X398760Y246380D01*
G01X261600Y114300D02*
G01X129520Y-17780D01*
G01X124440Y-17780D01*
G01X261600Y114300D02*
G01X397292Y-21392D01*
G01X261600Y123042D02*
G01X134600Y250042D01*
G01X134600Y251460D01*
G01X261582Y3464089D02*
G01X393662Y3596169D01*
G01X398742Y3596169D01*
G01X261582Y3464089D02*
G01X129502Y3332009D01*
G01X124422Y3332009D01*
G01X261582Y3464089D02*
G01X397274Y3328397D01*
G01X261582Y3472831D02*
G01X134582Y3599831D01*
G01X134582Y3601249D01*
G01X6045200Y114300D02*
G01X6177280Y246380D01*
G01X6182360Y246380D01*
G01X6045200Y114300D02*
G01X5913120Y-17780D01*
G01X5908040Y-17780D01*
G01X6045200Y114300D02*
G01X6180892Y-21392D01*
G01X6045200Y123042D02*
G01X5918200Y250042D01*
G01X5918200Y251460D01*
G01X6045200Y3464089D02*
G01X6177280Y3596169D01*
G01X6182360Y3596169D01*
G01X6045200Y3464089D02*
G01X5913120Y3332009D01*
G01X5908040Y3332009D01*
G01X6045200Y3464089D02*
G01X6180892Y3328397D01*
G01X6045200Y3472831D02*
G01X5918200Y3599831D01*
G01X5918200Y3601249D01*

G04 Circle Start*
G01X71608Y114300D02*
G03X451592Y114300I189992J0D01*
G03X71608Y114300I-189992J0D01*
G01X71590Y3464089D02*
G03X451574Y3464089I189992J0D01*
G03X71590Y3464089I-189992J0D01*
G01X5855208Y114300D02*
G03X6235192Y114300I189992J0D01*
G03X5855208Y114300I-189992J0D01*
G01X5855208Y3464089D02*
G03X6235192Y3464089I189992J0D01*
G03X5855208Y3464089I-189992J0D01*
G04 Circle End*

M02*

